<?xml version="1.0" encoding="UTF-8"?>
<!DOCTYPE svg PUBLIC "-//W3C//DTD SVG 1.1//EN" "http://www.w3.org/Graphics/SVG/1.1/DTD/svg11.dtd">
<!-- Creator: CorelDRAW 2020 (64 Bit) -->
<svg xmlns="http://www.w3.org/2000/svg" xml:space="preserve" width="61.5524mm" height="39.7051mm" version="1.1" style="shape-rendering:geometricPrecision; text-rendering:geometricPrecision; image-rendering:optimizeQuality; fill-rule:evenodd; clip-rule:evenodd"
viewBox="0 0 504.7 325.57"
 xmlns:xlink="http://www.w3.org/1999/xlink"
 xmlns:xodm="http://www.corel.com/coreldraw/odm/2003">
 <defs>
  <style type="text/css">
   <![CDATA[
    .fil7 {fill:#03FFD6}
    .fil8 {fill:#3DB5F4}
    .fil9 {fill:#3DB5F4;fill-rule:nonzero}
    .fil19 {fill:url(#id0)}
    .fil2 {fill:url(#id1)}
    .fil23 {fill:url(#id2)}
    .fil13 {fill:url(#id3)}
    .fil16 {fill:url(#id4)}
    .fil10 {fill:url(#id5)}
    .fil4 {fill:url(#id6)}
    .fil15 {fill:url(#id7)}
    .fil18 {fill:url(#id8)}
    .fil20 {fill:url(#id9)}
    .fil1 {fill:url(#id10)}
    .fil22 {fill:url(#id11)}
    .fil14 {fill:url(#id12)}
    .fil11 {fill:url(#id13)}
    .fil5 {fill:url(#id14)}
    .fil17 {fill:url(#id15)}
    .fil21 {fill:url(#id16)}
    .fil3 {fill:url(#id17)}
    .fil12 {fill:url(#id18)}
    .fil0 {fill:url(#id19)}
    .fil6 {fill:url(#id20)}
   ]]>
  </style>
  <linearGradient id="id0" gradientUnits="userSpaceOnUse" x1="22.87" y1="45.52" x2="32.13" y2="45.08">
   <stop offset="0" style="stop-opacity:1; stop-color:#03FFD6"/>
   <stop offset="1" style="stop-opacity:1; stop-color:#3DB5F4"/>
  </linearGradient>
  <linearGradient id="id1" gradientUnits="userSpaceOnUse" x1="309.22" y1="218.9" x2="247.12" y2="218.63">
   <stop offset="0" style="stop-opacity:1; stop-color:#3DB5F4"/>
   <stop offset="1" style="stop-opacity:1; stop-color:#03FFD6"/>
  </linearGradient>
  <linearGradient id="id2" gradientUnits="userSpaceOnUse" xlink:href="#id0" x1="52.18" y1="171.09" x2="227.04" y2="162.91">
  </linearGradient>
  <linearGradient id="id3" gradientUnits="userSpaceOnUse" xlink:href="#id0" x1="81.29" y1="81.59" x2="94.65" y2="100.3">
  </linearGradient>
  <linearGradient id="id4" gradientUnits="userSpaceOnUse" xlink:href="#id0" x1="35.93" y1="71.8" x2="52.15" y2="71.04">
  </linearGradient>
  <linearGradient id="id5" gradientUnits="userSpaceOnUse" xlink:href="#id0" x1="32.49" y1="119.53" x2="76.58" y2="116.05">
  </linearGradient>
  <linearGradient id="id6" gradientUnits="userSpaceOnUse" xlink:href="#id1" x1="335.77" y1="138.46" x2="335.77" y2="91.63">
  </linearGradient>
  <linearGradient id="id7" gradientUnits="userSpaceOnUse" xlink:href="#id0" x1="116.14" y1="41.06" x2="132.36" y2="40.29">
  </linearGradient>
  <linearGradient id="id8" gradientUnits="userSpaceOnUse" xlink:href="#id0" x1="9.26" y1="77.44" x2="18.52" y2="77">
  </linearGradient>
  <linearGradient id="id9" gradientUnits="userSpaceOnUse" xlink:href="#id0" x1="83.03" y1="40.49" x2="92.29" y2="40.06">
  </linearGradient>
  <linearGradient id="id10" gradientUnits="userSpaceOnUse" xlink:href="#id1" x1="336.19" y1="218.7" x2="335.93" y2="153.17">
  </linearGradient>
  <linearGradient id="id11" gradientUnits="userSpaceOnUse" xlink:href="#id0" x1="94.38" y1="18.66" x2="103.64" y2="18.22">
  </linearGradient>
  <linearGradient id="id12" gradientUnits="userSpaceOnUse" xlink:href="#id0" x1="139.4" y1="71.34" x2="114.15" y2="80.68">
  </linearGradient>
  <linearGradient id="id13" gradientUnits="userSpaceOnUse" xlink:href="#id0" x1="57.87" y1="171.71" x2="40.2" y2="142.62">
  </linearGradient>
  <linearGradient id="id14" gradientUnits="userSpaceOnUse" xlink:href="#id1" x1="247.32" y1="82.86" x2="334.61" y2="83.76">
  </linearGradient>
  <linearGradient id="id15" gradientUnits="userSpaceOnUse" xlink:href="#id0" x1="0.97" y1="114.99" x2="17.19" y2="114.23">
  </linearGradient>
  <linearGradient id="id16" gradientUnits="userSpaceOnUse" xlink:href="#id0" x1="39.6" y1="5.17" x2="48.87" y2="4.73">
  </linearGradient>
  <linearGradient id="id17" gradientUnits="userSpaceOnUse" xlink:href="#id1" x1="344.64" y1="72.84" x2="344.64" y2="138.37">
  </linearGradient>
  <linearGradient id="id18" gradientUnits="userSpaceOnUse" xlink:href="#id0" x1="52.56" y1="210.06" x2="41.61" y2="189.95">
  </linearGradient>
  <linearGradient id="id19" gradientUnits="userSpaceOnUse" xlink:href="#id1" x1="400.37" y1="153.17" x2="400.7" y2="218.71">
  </linearGradient>
  <linearGradient id="id20" gradientUnits="userSpaceOnUse" xlink:href="#id1" x1="504.53" y1="249.55" x2="504.53" y2="147.68">
  </linearGradient>
 </defs>
 <g id="Camada_x0020_1">
  <metadata id="CorelCorpID_0Corel-Layer"/>
  <g id="_2005668137824">
   <path class="fil0" d="M477.69 218.7l0 -12.43 -82.48 0 0 -14.12 34.6 0 0 -12.43 -34.6 0 0 -14.12 38.22 0 0 -12.43 -47.1 0c-1.13,0 -2.24,0.4 -3.33,1.19 -1.08,0.79 -2.03,1.79 -2.85,2.99 -0.81,1.21 -1.47,2.54 -1.96,4.01 -0.49,1.47 -0.74,2.88 -0.74,4.24l0 40.67c0,1.36 0.25,2.77 0.74,4.24 0.49,1.47 1.15,2.81 1.96,4.01 0.81,1.21 1.76,2.2 2.85,2.99 1.08,0.79 2.19,1.19 3.33,1.19l91.35 0z"/>
   <path class="fil1" d="M318.02 206.27l0 -53.1 17.74 0 0 53.1 32.75 0 0 12.43 -41.62 0c-1.18,0 -2.3,-0.4 -3.36,-1.19 -1.06,-0.79 -2,-1.79 -2.81,-2.99 -0.81,-1.21 -1.47,-2.54 -1.96,-4.01 -0.49,-1.47 -0.74,-2.88 -0.74,-4.24z"/>
   <path class="fil2" d="M309.22 179.72l0 -14.12c0,-1.36 -0.25,-2.77 -0.74,-4.24 -0.49,-1.47 -1.15,-2.81 -1.96,-4.01 -0.81,-1.21 -1.76,-2.2 -2.85,-2.99 -1.08,-0.79 -2.19,-1.19 -3.33,-1.19l-53.23 0 0 65.53 17.74 0 0 -53.1 26.62 0 0 14.12 -21.74 0 0 12.43 30.61 0c1.13,0 2.24,-0.4 3.33,-1.19 1.08,-0.79 2.03,-1.79 2.85,-2.99 0.81,-1.21 1.47,-2.54 1.96,-4.01 0.49,-1.47 0.74,-2.88 0.74,-4.24z"/>
   <polygon class="fil3" points="433.43,72.84 409.41,72.84 389.32,117.69 369.67,72.84 344.64,72.84 344.64,138.37 356.43,138.37 356.43,87.64 379.13,138.37 393.33,138.37 415.96,87.75 415.96,138.37 433.43,138.37 433.43,125.97 "/>
   <polygon class="fil4" points="318.02,138.37 318.02,91.63 335.77,91.63 335.77,138.37 "/>
   <path class="fil5" d="M291.48 111.82l0 14.12 -44.36 0 0 12.43 53.23 0c1.13,0 2.24,-0.4 3.33,-1.19 1.08,-0.79 2.03,-1.79 2.85,-2.99 0.81,-1.21 1.47,-2.54 1.96,-4.01 0.49,-1.47 0.74,-2.88 0.74,-4.24l0 -14.12c0,-1.36 -0.25,-2.77 -0.74,-4.24 -0.49,-1.47 -1.15,-2.81 -1.96,-4.01 -0.81,-1.21 -1.76,-2.2 -2.85,-2.99 -1.08,-0.79 -2.19,-1.19 -3.33,-1.19l-35.49 0 0 -14.12 70.9 0 0 -12.43 -79.77 0c-1.13,0 -2.24,0.4 -3.33,1.19 -1.08,0.79 -2.03,1.79 -2.85,2.99 -0.81,1.2 -1.47,2.54 -1.96,4.01 -0.49,1.47 -0.74,2.88 -0.74,4.24l0 14.12c0,1.36 0.25,2.77 0.74,4.24 0.49,1.47 1.15,2.81 1.96,4.01 0.81,1.2 1.76,2.2 2.85,2.99 1.08,0.79 2.19,1.19 3.33,1.19l35.49 0z"/>
   <path class="fil6" d="M486.78 192.15l0 44.77 -239.66 0 0 12.43 248.53 0c1.13,0 2.24,-0.4 3.33,-1.19 1.08,-0.79 2.03,-1.79 2.85,-2.99 0.81,-1.21 1.47,-2.54 1.96,-4.01 0.49,-1.47 0.74,-2.88 0.74,-4.24l0 -44.77c0,-1.36 -0.25,-2.77 -0.74,-4.24 -0.49,-1.47 -1.15,-2.81 -1.96,-4.01 -0.81,-1.2 -1.76,-2.2 -2.85,-2.99 -1.08,-0.79 -2.19,-1.19 -3.33,-1.19l-35.49 0 0 -14.12 44.36 0 0 -12.43 -53.23 0c-1.13,0 -2.24,0.39 -3.33,1.18 -1.08,0.79 -2.03,1.79 -2.85,2.99 -0.81,1.21 -1.47,2.54 -1.96,4.01 -0.49,1.47 -0.74,2.88 -0.74,4.24l0 14.12c0,1.36 0.25,2.77 0.74,4.24 0.49,1.47 1.15,2.81 1.96,4.01 0.81,1.2 1.76,2.2 2.85,2.99 1.08,0.79 2.19,1.19 3.33,1.19l35.49 0z"/>
   <polygon class="fil7" points="377.29,310.97 358.52,319.52 361.27,325.57 380.04,317.02 "/>
   <polygon class="fil8" points="409.53,264.74 396.02,264.74 396.02,269.42 409.53,269.42 "/>
   <polygon class="fil7" points="409.53,264.74 403.08,270.01 406.04,273.63 412.49,268.36 "/>
   <polygon class="fil8" points="416.58,270.01 403.08,270.01 403.08,274.69 416.58,274.69 "/>
   <path class="fil9" d="M32.25 278.99l11.38 30.65c0.19,0.49 0.45,0.87 0.79,1.15 0.34,0.28 0.77,0.42 1.3,0.42 0.56,0 1.03,-0.2 1.41,-0.59 0.38,-0.39 0.56,-0.91 0.56,-1.55l0 -22.48c0,-2.48 0.7,-4.48 2.09,-6 1.39,-1.52 3.49,-2.28 6.31,-2.28 2.55,0 4.51,0.63 5.86,1.89 1.35,1.26 2.4,2.98 3.16,5.16l9.24 24.28c0.38,1.05 1.07,1.58 2.09,1.58 0.56,0 1.02,-0.2 1.38,-0.59 0.36,-0.39 0.54,-0.91 0.54,-1.55l0 -30.08 6.71 0 0 30.37c0,2.52 -0.7,4.54 -2.11,6.06 -1.41,1.52 -3.52,2.28 -6.34,2.28 -2.55,0 -4.5,-0.63 -5.83,-1.89 -1.33,-1.26 -2.38,-2.98 -3.13,-5.16l-9.24 -24.28c-0.19,-0.49 -0.46,-0.88 -0.82,-1.18 -0.36,-0.3 -0.8,-0.45 -1.32,-0.45 -0.56,0 -1.02,0.2 -1.38,0.59 -0.36,0.39 -0.53,0.93 -0.53,1.61l0 22.42c0,2.52 -0.7,4.54 -2.11,6.06 -1.41,1.52 -3.52,2.28 -6.34,2.28 -2.55,0 -4.5,-0.63 -5.83,-1.89 -1.33,-1.26 -2.38,-2.98 -3.13,-5.16l-11.78 -31.66 7.1 0zm92.37 0l0 6.65 -19.05 0c-2.03,0 -3.49,0.43 -4.4,1.3 -0.9,0.86 -1.35,2.03 -1.35,3.49 0,3 1.94,4.51 5.81,4.51l18.71 0 0 6.03 -18.88 0c-3.87,0 -5.81,1.54 -5.81,4.62 0,1.5 0.47,2.68 1.41,3.52 0.94,0.85 2.39,1.27 4.34,1.27l19.27 0 0 6.65 -19.27 0c-2.25,0 -4.18,-0.26 -5.78,-0.79 -1.6,-0.53 -2.91,-1.25 -3.94,-2.17 -1.03,-0.92 -1.79,-2.02 -2.25,-3.3 -0.47,-1.28 -0.7,-2.65 -0.7,-4.11 0,-2.18 0.47,-3.99 1.41,-5.44 0.94,-1.45 2.29,-2.54 4.06,-3.3 -3.57,-1.47 -5.35,-4.32 -5.35,-8.56 0,-1.5 0.24,-2.89 0.73,-4.17 0.49,-1.28 1.25,-2.38 2.28,-3.3 1.03,-0.92 2.35,-1.63 3.94,-2.14 1.6,-0.51 3.52,-0.76 5.78,-0.76l19.05 0zm28.57 0c2.25,0 4.18,0.25 5.78,0.76 1.6,0.51 2.91,1.22 3.94,2.14 1.03,0.92 1.79,2.02 2.28,3.3 0.49,1.28 0.73,2.69 0.73,4.23 0,2.22 -0.46,4 -1.38,5.35 -0.92,1.35 -2.28,2.39 -4.09,3.1 1.8,0.75 3.19,1.83 4.17,3.24 0.98,1.41 1.46,3.22 1.46,5.44 0,1.54 -0.24,2.95 -0.73,4.23 -0.49,1.28 -1.25,2.38 -2.28,3.3 -1.03,0.92 -2.35,1.64 -3.94,2.17 -1.6,0.53 -3.52,0.79 -5.78,0.79l-16.91 0c-2.1,0 -3.16,-1.03 -3.16,-3.1l0 -31.83c0,-2.07 1.05,-3.1 3.16,-3.1l16.74 0zm-13.36 30.82c0,0.41 0.24,0.62 0.73,0.62l12.96 0c2.03,0 3.51,-0.43 4.45,-1.3 0.94,-0.86 1.41,-2.08 1.41,-3.66 0,-3.27 -1.95,-4.9 -5.86,-4.9l-13.69 0 0 9.24zm0 -14.76l13.53 0c3.91,0 5.86,-1.52 5.86,-4.56 0,-1.5 -0.46,-2.7 -1.38,-3.61 -0.92,-0.9 -2.4,-1.35 -4.42,-1.35l-12.85 0c-0.49,0 -0.73,0.23 -0.73,0.68l0 8.84zm78.39 -16.06l0 6.65 -19.5 0c-1.73,0 -2.99,0.42 -3.78,1.27 -0.79,0.85 -1.18,1.93 -1.18,3.24 0,0.56 0.08,1.12 0.25,1.66 0.17,0.54 0.47,1.03 0.9,1.46 0.43,0.43 1,0.77 1.72,1.01 0.71,0.24 1.63,0.37 2.76,0.37l8.9 0c2.59,0 4.71,0.33 6.37,0.99 1.65,0.66 2.96,1.51 3.92,2.56 0.96,1.05 1.62,2.25 1.97,3.61 0.36,1.35 0.54,2.7 0.54,4.06 0,1.61 -0.23,3.1 -0.68,4.45 -0.45,1.35 -1.16,2.53 -2.14,3.52 -0.98,1 -2.23,1.77 -3.75,2.34 -1.52,0.56 -3.37,0.85 -5.55,0.85l-21.19 0 0 -6.65 21.42 0c1.8,0 3.13,-0.44 3.97,-1.32 0.85,-0.88 1.27,-2.02 1.27,-3.41 0,-0.6 -0.09,-1.19 -0.28,-1.77 -0.19,-0.58 -0.51,-1.09 -0.96,-1.52 -0.45,-0.43 -1.06,-0.78 -1.83,-1.04 -0.77,-0.26 -1.74,-0.39 -2.9,-0.39l-8.85 0c-2.55,0 -4.64,-0.32 -6.26,-0.96 -1.62,-0.64 -2.88,-1.48 -3.8,-2.53 -0.92,-1.05 -1.56,-2.24 -1.92,-3.55 -0.36,-1.31 -0.54,-2.63 -0.54,-3.94 0,-1.58 0.22,-3.03 0.65,-4.37 0.43,-1.33 1.13,-2.49 2.09,-3.46 0.96,-0.98 2.19,-1.74 3.69,-2.28 1.5,-0.54 3.31,-0.82 5.41,-0.82l19.27 0zm31 0c5.56,0 9.82,1.58 12.77,4.73 2.95,3.15 4.42,7.94 4.42,14.37 0,6.39 -1.47,11.14 -4.42,14.25 -2.95,3.12 -7.2,4.68 -12.77,4.68l-5.19 0c-5.56,0 -9.81,-1.56 -12.77,-4.68 -2.95,-3.12 -4.42,-7.87 -4.42,-14.25 0,-6.42 1.47,-11.21 4.42,-14.37 2.95,-3.16 7.2,-4.73 12.77,-4.73l5.19 0zm-5.19 6.65c-3.68,0 -6.36,0.98 -8.03,2.93 -1.67,1.95 -2.51,5.13 -2.51,9.52 0,4.36 0.83,7.49 2.48,9.41 1.65,1.92 4.34,2.87 8.06,2.87l5.19 0c3.64,0 6.3,-0.97 7.97,-2.9 1.67,-1.93 2.51,-5.08 2.51,-9.44 0,-4.36 -0.83,-7.51 -2.48,-9.46 -1.65,-1.95 -4.32,-2.93 -8,-2.93l-5.19 0zm36.46 -6.65l0 24.84c0,0.9 0.12,1.76 0.37,2.56 0.24,0.81 0.67,1.5 1.27,2.09 0.6,0.58 1.4,1.04 2.4,1.38 1,0.34 2.25,0.51 3.75,0.51l14.77 0 0 6.65 -15.16 0c-2.52,0 -4.67,-0.33 -6.45,-0.99 -1.79,-0.66 -3.24,-1.57 -4.37,-2.73 -1.13,-1.16 -1.94,-2.54 -2.45,-4.14 -0.51,-1.6 -0.76,-3.35 -0.76,-5.27l0 -24.9 6.65 0zm34.27 0l0 25.41c0,1.92 0.5,3.39 1.49,4.42 1,1.03 2.6,1.55 4.82,1.55l6.76 0c2.14,0 3.72,-0.52 4.73,-1.55 1.01,-1.03 1.52,-2.51 1.52,-4.42l0 -25.41 6.54 0 0 25.92c0,4.02 -1.03,7.04 -3.1,9.07 -2.07,2.03 -5.15,3.04 -9.24,3.04l-8 0c-8.19,0 -12.29,-4.04 -12.29,-12.11l0 -25.92 6.76 0zm65.26 0l0 6.65 -14.71 0c-3.68,0 -6.36,0.97 -8.03,2.9 -1.67,1.93 -2.51,5.1 -2.51,9.49 0,4.36 0.83,7.5 2.48,9.44 1.65,1.93 4.34,2.9 8.06,2.9l14.71 0 0 6.65 -14.71 0c-5.56,0 -9.82,-1.57 -12.77,-4.7 -2.95,-3.14 -4.42,-7.9 -4.42,-14.28 0,-6.42 1.47,-11.2 4.42,-14.34 2.95,-3.14 7.2,-4.7 12.77,-4.7l14.71 0zm28.35 0c5.56,0 9.82,1.58 12.77,4.73 2.95,3.15 4.42,7.94 4.42,14.37 0,6.39 -1.48,11.14 -4.42,14.25 -2.95,3.12 -7.2,4.68 -12.77,4.68l-5.19 0c-5.56,0 -9.81,-1.56 -12.77,-4.68 -2.95,-3.12 -4.42,-7.87 -4.42,-14.25 0,-6.42 1.47,-11.21 4.42,-14.37 2.95,-3.16 7.2,-4.73 12.77,-4.73l5.19 0zm-5.19 6.65c-3.68,0 -6.36,0.98 -8.03,2.93 -1.67,1.95 -2.51,5.13 -2.51,9.52 0,4.36 0.83,7.49 2.48,9.41 1.65,1.92 4.34,2.87 8.06,2.87l5.19 0c3.64,0 6.3,-0.97 7.97,-2.9 1.67,-1.93 2.51,-5.08 2.51,-9.44 0,-4.36 -0.83,-7.51 -2.48,-9.46 -1.65,-1.95 -4.32,-2.93 -8,-2.93l-5.19 0zm60.59 -6.65l0 6.65 -19.05 0c-2.03,0 -3.49,0.43 -4.4,1.3 -0.9,0.86 -1.35,2.03 -1.35,3.49 0,3 1.94,4.51 5.81,4.51l18.71 0 0 6.03 -18.88 0c-3.87,0 -5.81,1.54 -5.81,4.62 0,1.5 0.47,2.68 1.41,3.52 0.94,0.85 2.39,1.27 4.34,1.27l19.27 0 0 6.65 -19.27 0c-2.25,0 -4.18,-0.26 -5.78,-0.79 -1.6,-0.53 -2.91,-1.25 -3.94,-2.17 -1.03,-0.92 -1.79,-2.02 -2.25,-3.3 -0.47,-1.28 -0.7,-2.65 -0.7,-4.11 0,-2.18 0.47,-3.99 1.41,-5.44 0.94,-1.45 2.29,-2.54 4.06,-3.3 -3.57,-1.47 -5.35,-4.32 -5.35,-8.56 0,-1.5 0.24,-2.89 0.73,-4.17 0.49,-1.28 1.25,-2.38 2.28,-3.3 1.03,-0.92 2.35,-1.63 3.94,-2.14 1.6,-0.51 3.52,-0.76 5.78,-0.76l19.05 0zm38.04 0l0 6.65 -19.5 0c-1.73,0 -2.99,0.42 -3.78,1.27 -0.79,0.85 -1.18,1.93 -1.18,3.24 0,0.56 0.08,1.12 0.25,1.66 0.17,0.54 0.47,1.03 0.9,1.46 0.43,0.43 1.01,0.77 1.72,1.01 0.71,0.24 1.63,0.37 2.76,0.37l8.9 0c2.59,0 4.72,0.33 6.37,0.99 1.65,0.66 2.96,1.51 3.92,2.56 0.96,1.05 1.62,2.25 1.97,3.61 0.36,1.35 0.54,2.7 0.54,4.06 0,1.61 -0.23,3.1 -0.68,4.45 -0.45,1.35 -1.16,2.53 -2.14,3.52 -0.98,1 -2.23,1.77 -3.75,2.34 -1.52,0.56 -3.37,0.85 -5.55,0.85l-21.19 0 0 -6.65 21.42 0c1.8,0 3.13,-0.44 3.97,-1.32 0.85,-0.88 1.27,-2.02 1.27,-3.41 0,-0.6 -0.09,-1.19 -0.28,-1.77 -0.19,-0.58 -0.51,-1.09 -0.96,-1.52 -0.45,-0.43 -1.06,-0.78 -1.83,-1.04 -0.77,-0.26 -1.74,-0.39 -2.9,-0.39l-8.85 0c-2.55,0 -4.64,-0.32 -6.26,-0.96 -1.62,-0.64 -2.88,-1.48 -3.8,-2.53 -0.92,-1.05 -1.56,-2.24 -1.92,-3.55 -0.36,-1.31 -0.54,-2.63 -0.54,-3.94 0,-1.58 0.22,-3.03 0.65,-4.37 0.43,-1.33 1.13,-2.49 2.09,-3.46 0.96,-0.98 2.19,-1.74 3.69,-2.28 1.5,-0.54 3.31,-0.82 5.41,-0.82l19.27 0z"/>
   <path class="fil10" d="M54.39 138.89c12.22,0 22.12,-9.9 22.12,-22.12 0,-12.22 -9.9,-22.12 -22.12,-22.12 -12.22,0 -22.12,9.9 -22.12,22.12 0,12.22 9.9,22.12 22.12,22.12z"/>
   <path class="fil11" d="M40.2 180.98c10.59,0 19.18,-8.59 19.18,-19.18 0,-10.59 -8.59,-19.18 -19.18,-19.18 -10.59,0 -19.18,8.59 -19.18,19.18 0,10.59 8.59,19.18 19.18,19.18z"/>
   <path class="fil12" d="M40.99 216.05c8.08,0 14.62,-6.55 14.62,-14.62 0,-8.08 -6.55,-14.62 -14.62,-14.62 -8.08,0 -14.62,6.55 -14.62,14.62 0,8.08 6.55,14.62 14.62,14.62z"/>
   <path class="fil13" d="M86.47 102.35c9.39,0 17,-7.61 17,-17.01 0,-9.39 -7.61,-17 -17,-17 -9.39,0 -17.01,7.61 -17.01,17 0,9.39 7.61,17.01 17.01,17.01z"/>
   <path class="fil14" d="M122.14 88.23c8.11,0 14.69,-6.58 14.69,-14.69 0,-8.11 -6.58,-14.69 -14.69,-14.69 -8.11,0 -14.69,6.58 -14.69,14.69 0,8.11 6.58,14.69 14.69,14.69z"/>
   <path class="fil15" d="M123.76 49.18c4.74,0 8.59,-3.85 8.59,-8.59 0,-4.74 -3.84,-8.59 -8.59,-8.59 -4.74,0 -8.59,3.85 -8.59,8.59 0,4.74 3.85,8.59 8.59,8.59z"/>
   <path class="fil16" d="M43.55 79.93c4.74,0 8.59,-3.84 8.59,-8.59 0,-4.74 -3.84,-8.59 -8.59,-8.59 -4.74,0 -8.59,3.85 -8.59,8.59 0,4.74 3.85,8.59 8.59,8.59z"/>
   <path class="fil17" d="M8.59 123.11c4.74,0 8.59,-3.84 8.59,-8.59 0,-4.74 -3.85,-8.59 -8.59,-8.59 -4.74,0 -8.59,3.84 -8.59,8.59 0,4.74 3.84,8.59 8.59,8.59z"/>
   <path class="fil18" d="M13.61 82.08c2.71,0 4.9,-2.2 4.9,-4.9 0,-2.71 -2.2,-4.9 -4.9,-4.9 -2.71,0 -4.9,2.2 -4.9,4.9 0,2.71 2.2,4.9 4.9,4.9z"/>
   <path class="fil19" d="M27.22 50.15c2.71,0 4.9,-2.2 4.9,-4.9 0,-2.71 -2.2,-4.9 -4.9,-4.9 -2.71,0 -4.9,2.19 -4.9,4.9 0,2.71 2.19,4.9 4.9,4.9z"/>
   <path class="fil20" d="M87.38 45.13c2.71,0 4.9,-2.19 4.9,-4.9 0,-2.71 -2.19,-4.9 -4.9,-4.9 -2.71,0 -4.9,2.2 -4.9,4.9 0,2.71 2.19,4.9 4.9,4.9z"/>
   <path class="fil21" d="M43.96 9.8c2.71,0 4.9,-2.2 4.9,-4.9 0,-2.71 -2.19,-4.9 -4.9,-4.9 -2.71,0 -4.9,2.2 -4.9,4.9 0,2.71 2.2,4.9 4.9,4.9z"/>
   <path class="fil22" d="M98.73 23.3c2.71,0 4.9,-2.2 4.9,-4.9 0,-2.71 -2.2,-4.9 -4.9,-4.9 -2.71,0 -4.9,2.19 -4.9,4.9 0,2.71 2.2,4.9 4.9,4.9z"/>
   <path class="fil23" d="M133.61 259.3c51.51,0 93.27,-41.76 93.27,-93.27 0,-49.94 -39.25,-90.72 -88.59,-93.15 0.01,0.22 0.01,0.44 0.01,0.67 0,8.92 -7.23,16.16 -16.16,16.16 -7.8,0 -14.31,-5.53 -15.82,-12.88 -1,0.31 -2,0.63 -2.99,0.97 1.04,2.31 1.61,4.87 1.61,7.56 0,10.2 -8.27,18.47 -18.47,18.47 -6.08,0 -11.48,-2.94 -14.85,-7.48 -0.79,0.7 -1.57,1.42 -2.33,2.15 5.3,4.33 8.69,10.91 8.69,18.29 0,13.03 -10.56,23.59 -23.59,23.59 -3.51,0 -6.84,-0.77 -9.83,-2.14 -0.33,1.06 -0.65,2.13 -0.94,3.21 9.78,1.63 17.23,10.12 17.23,20.36 0,10.88 -8.41,19.79 -19.08,20.59 0.18,1.01 0.37,2.01 0.58,3 8.25,0.69 14.73,7.61 14.73,16.04 0,4.27 -1.67,8.16 -4.38,11.04 16.1,27.99 46.3,46.84 80.91,46.84zm-17.76 -133.37l4.53 4.52c4.16,4.16 4.16,10.97 -0,15.13l-20.44 20.44 -12.09 12.09c-3.39,3.39 -5.33,7.05 -3.71,11.43l-15.95 -15.95c-4.16,-4.16 -4.16,-10.97 0,-15.13l32.54 -32.54c4.16,-4.16 10.97,-4.16 15.13,0zm-26.5 53.7l12.09 -12.09 18.93 18.93c4.16,4.16 4.16,10.97 0,15.13l-4.53 4.52c-4.16,4.16 -10.97,4.16 -15.13,0l-11.37 -11.36c-4.16,-4.16 -4.16,-10.97 0,-15.13zm62.02 26.5l-4.53 -4.52c-4.16,-4.16 -4.16,-10.97 0,-15.13l20.44 -20.44 12.09 -12.09c3.39,-3.39 5.33,-7.05 3.71,-11.43l15.95 15.95c4.16,4.16 4.16,10.97 0,15.13l-32.54 32.54c-4.16,4.16 -10.97,4.16 -15.13,0zm26.5 -53.7l-12.09 12.09 -18.93 -18.93c-4.16,-4.16 -4.16,-10.97 0,-15.13l4.53 -4.53c4.16,-4.16 10.97,-4.16 15.13,0l11.37 11.37c4.16,4.16 4.16,10.97 0,15.13z"/>
  </g>
 </g>
</svg>
